<?xml version="1.0" encoding="UTF-8" standalone="no" ?>
<!DOCTYPE svg PUBLIC "-//W3C//DTD SVG 1.1//EN" "http://www.w3.org/Graphics/SVG/1.1/DTD/svg11.dtd">
<svg xmlns="http://www.w3.org/2000/svg" xmlns:xlink="http://www.w3.org/1999/xlink" version="1.1" width="1080" height="1080" viewBox="0 0 1080 1080" xml:space="preserve">
<desc>Created with Fabric.js 5.2.4</desc>
<defs>
</defs>
<g transform="matrix(1 0 0 1 540 540)" id="b3620d3f-ba75-48a7-902d-d97c8a563ba1"  >
<rect style="stroke: none; stroke-width: 1; stroke-dasharray: none; stroke-linecap: butt; stroke-dashoffset: 0; stroke-linejoin: miter; stroke-miterlimit: 4; fill: rgb(255,255,255); fill-rule: nonzero; opacity: 1; visibility: hidden;" vector-effect="non-scaling-stroke"  x="-540" y="-540" rx="0" ry="0" width="1080" height="1080" />
</g>
<g transform="matrix(1 0 0 1 540 540)" id="a572eb2a-9678-4dca-99ec-915d62259aa1"  >
</g>
<g transform="matrix(1 0 0 1 540 540)" id="42f6c0c0-302a-4a64-90bf-3bf928f5c4ab"  >
<path style="stroke: rgb(0,0,0); stroke-width: 0; stroke-dasharray: none; stroke-linecap: butt; stroke-dashoffset: 0; stroke-linejoin: miter; stroke-miterlimit: 4; fill: rgb(255,255,255); fill-rule: nonzero; opacity: 1;" vector-effect="non-scaling-stroke"  transform=" translate(-256.01, -256)" d="M 9.4 233.4 C -3.0999999999999996 245.9 -3.0999999999999996 266.2 9.4 278.7 L 137.4 406.7 C 149.9 419.2 170.2 419.2 182.7 406.7 C 195.2 394.2 195.2 373.9 182.7 361.4 L 109.3 288 L 480 288 C 497.7 288 512 273.7 512 256 C 512 238.3 497.7 224 480 224 L 109.30000000000001 224 L 182.70000000000002 150.6 C 195.20000000000002 138.1 195.20000000000002 117.8 182.70000000000002 105.3 C 170.20000000000002 92.8 149.90000000000003 92.8 137.40000000000003 105.3 L 9.400000000000034 233.3 z" stroke-linecap="round" />
</g>
</svg>