<?xml version="1.0" standalone="no"?>
<!DOCTYPE svg PUBLIC "-//W3C//DTD SVG 20010904//EN"
 "http://www.w3.org/TR/2001/REC-SVG-20010904/DTD/svg10.dtd">
<svg version="1.0" xmlns="http://www.w3.org/2000/svg"
 width="157.000000pt" height="135.000000pt" viewBox="0 0 157.000000 135.000000"
 preserveAspectRatio="xMidYMid meet">
<metadata>
Created by potrace 1.16, written by Peter Selinger 2001-2019
</metadata>
<g transform="translate(0.000000,135.000000) scale(0.100000,-0.100000)"
fill="#000000" stroke="none">
<path d="M199 1257 c-18 -12 -44 -38 -56 -56 l-23 -34 0 -482 0 -482 23 -34
c12 -18 38 -44 56 -56 l34 -23 567 0 567 0 33 23 c46 31 71 67 81 118 11 57
11 681 0 738 -10 48 -33 84 -75 115 -26 20 -45 21 -294 27 -147 3 -268 6 -269
7 -2 1 -25 31 -53 66 -74 95 -79 96 -338 96 -211 0 -220 -1 -253 -23z m676
-311 c64 -17 109 -40 163 -83 l42 -34 0 33 c0 48 19 70 55 66 43 -4 55 -37 55
-146 0 -85 -2 -95 -25 -117 -22 -23 -32 -25 -119 -25 -99 0 -145 12 -147 39
-4 50 17 71 70 71 l36 1 -35 30 c-55 48 -107 69 -178 69 -104 0 -183 -46 -234
-137 -37 -66 -60 -80 -94 -58 -13 8 -24 24 -24 34 0 60 95 187 168 225 82 42
183 55 267 32z m-217 -422 c47 -32 13 -94 -52 -94 -29 0 -29 0 -10 -21 57 -63
179 -95 270 -70 54 14 129 81 159 141 28 55 65 72 96 44 24 -22 24 -45 -2 -96
-35 -68 -113 -142 -182 -173 -52 -24 -76 -28 -147 -29 -71 0 -94 4 -143 27
-32 14 -78 43 -102 63 l-45 36 0 -33 c0 -62 -62 -93 -94 -47 -12 17 -16 48
-16 125 0 90 3 106 20 123 17 17 33 20 123 20 77 0 108 -4 125 -16z"/>
</g>
</svg>
