<?xml version="1.0" standalone="no"?>
<!DOCTYPE svg PUBLIC "-//W3C//DTD SVG 20010904//EN"
 "http://www.w3.org/TR/2001/REC-SVG-20010904/DTD/svg10.dtd">
<svg version="1.0" xmlns="http://www.w3.org/2000/svg"
 width="267.000000pt" height="272.000000pt" viewBox="0 0 267.000000 272.000000"
 preserveAspectRatio="xMidYMid meet">
<metadata>
Created by potrace 1.16, written by Peter Selinger 2001-2019
</metadata>
<g transform="translate(0.000000,272.000000) scale(0.100000,-0.100000)"
fill="#000000" stroke="none">
<path d="M1225 2614 c-555 -60 -998 -453 -1117 -991 -29 -132 -31 -386 -4
-513 54 -248 172 -466 351 -646 132 -132 334 -257 479 -296 47 -12 48 -12 72
15 22 26 24 36 24 140 0 62 -4 117 -8 122 -4 6 -61 10 -132 10 -114 1 -129 3
-175 27 -64 33 -76 47 -124 145 -37 76 -74 121 -151 185 -28 24 -31 30 -19 44
35 42 167 -14 226 -96 61 -85 94 -119 140 -141 38 -18 56 -21 111 -16 107 9
126 20 141 76 7 26 23 64 37 84 30 45 30 47 -5 47 -56 0 -166 31 -248 71 -190
91 -283 263 -284 526 0 131 24 218 86 304 36 51 36 51 24 101 -14 60 -7 185
14 243 14 40 15 40 63 39 54 -2 169 -46 247 -96 l47 -30 88 18 c119 25 344 25
464 0 86 -18 88 -18 115 2 75 52 223 112 279 112 29 0 33 -4 48 -47 25 -70 31
-163 16 -232 l-12 -60 40 -60 c65 -98 77 -145 77 -301 0 -147 -19 -234 -73
-333 -35 -66 -128 -149 -207 -187 -68 -33 -200 -70 -247 -70 -33 0 -35 -13 -8
-47 41 -53 50 -113 50 -345 0 -209 1 -219 21 -239 28 -28 57 -23 176 29 368
158 649 511 730 914 23 115 23 354 0 470 -101 506 -501 908 -999 1003 -84 16
-282 26 -353 19z"/>
<path d="M1211 1854 c-80 -21 -149 -62 -212 -124 -57 -57 -119 -164 -119 -207
0 -52 78 -84 112 -45 9 9 27 40 41 67 98 196 368 248 533 102 l48 -42 -48 -7
c-60 -8 -86 -31 -86 -74 0 -56 23 -64 191 -64 191 0 183 -7 187 179 3 150 -5
179 -51 195 -22 8 -33 6 -55 -11 -22 -17 -28 -29 -30 -72 l-3 -52 -52 44 c-71
60 -131 93 -202 111 -73 20 -182 19 -254 0z"/>
<path d="M841 1294 c-19 -24 -21 -40 -21 -166 0 -134 1 -140 25 -163 13 -14
34 -25 45 -25 11 0 32 11 45 25 19 19 25 35 25 70 l0 47 53 -48 c28 -26 86
-63 127 -83 66 -32 86 -36 172 -39 78 -4 110 0 166 17 129 39 242 136 298 256
30 63 30 80 -1 110 -47 48 -86 28 -134 -68 -63 -125 -214 -200 -357 -177 -71
12 -126 39 -184 89 l-45 40 48 1 c83 0 126 69 74 118 -22 21 -33 22 -169 22
-146 0 -147 0 -167 -26z"/>
</g>
</svg>
